<?xml version="1.0" encoding="utf-8"?>
<!-- Generator: Adobe Illustrator 13.0.2, SVG Export Plug-In . SVG Version: 6.00 Build 14948)  -->
<svg version="1.2" baseProfile="tiny" id="Layer_1" xmlns="http://www.w3.org/2000/svg" xmlns:xlink="http://www.w3.org/1999/xlink"
	 x="0px" y="0px" width="255.164px" height="238.979px" viewBox="0 0 255.164 238.979" xml:space="preserve">
<g>
	<path fill="#77ABD4" stroke="#000000" stroke-width="6.25" stroke-linecap="round" stroke-linejoin="round" d="M239.695,10.999
		H136.453C87.778,13.872,95.566,171.221,8.232,180.347l112.581,40.682C205.867,250.415,181.609,61.704,239.695,10.999z"/>
	<g>
		
			<rect x="8.604" y="177.72" stroke="#000000" stroke-width="6.25" stroke-linecap="round" stroke-linejoin="round" width="16.87" height="16.87"/>
		
			<rect x="3.125" y="172.757" stroke="#FDE852" stroke-width="6.25" stroke-linecap="round" stroke-linejoin="round" width="16.87" height="16.872"/>
	</g>
	<g>
		
			<rect x="235.168" y="8.088" stroke="#000000" stroke-width="6.25" stroke-linecap="round" stroke-linejoin="round" width="16.871" height="16.87"/>
		
			<rect x="229.689" y="3.125" stroke="#FDE852" stroke-width="6.25" stroke-linecap="round" stroke-linejoin="round" width="16.871" height="16.873"/>
	</g>
	<g>
		
			<rect x="114.229" y="8.088" stroke="#000000" stroke-width="6.25" stroke-linecap="round" stroke-linejoin="round" width="16.87" height="16.87"/>
		
			<rect x="108.75" y="3.125" stroke="#FDE852" stroke-width="6.25" stroke-linecap="round" stroke-linejoin="round" width="16.87" height="16.873"/>
	</g>
	<g>
		
			<rect x="133.076" y="109.578" stroke="#000000" stroke-width="6.25" stroke-linecap="round" stroke-linejoin="round" width="16.87" height="16.871"/>
		
			<rect x="127.598" y="104.614" stroke="#FDE852" stroke-width="6.25" stroke-linecap="round" stroke-linejoin="round" width="16.87" height="16.873"/>
	</g>
	<g>
		
			<rect x="147.026" y="218.984" stroke="#000000" stroke-width="6.25" stroke-linecap="round" stroke-linejoin="round" width="16.87" height="16.87"/>
		
			<rect x="141.548" y="214.021" stroke="#FDE852" stroke-width="6.25" stroke-linecap="round" stroke-linejoin="round" width="16.87" height="16.873"/>
	</g>
</g>
</svg>
